<svg width="25" height="25" viewBox="0 0 25 25" fill="none" xmlns="http://www.w3.org/2000/svg">
<mask id="mask0_19_20" style="mask-type:alpha" maskUnits="userSpaceOnUse" x="0" y="0" width="25" height="25">
<rect x="0.398376" y="0.10968" width="24" height="24" fill="#D9D9D9"/>
</mask>
<g mask="url(#mask0_19_20)">
<path d="M12.3984 21.1097L10.9484 19.8097C9.26504 18.293 7.87338 16.9847 6.77338 15.8847C5.67338 14.7847 4.79838 13.7972 4.14838 12.9222C3.49838 12.0472 3.04421 11.243 2.78588 10.5097C2.52754 9.77637 2.39838 9.02637 2.39838 8.2597C2.39838 6.69304 2.92338 5.3847 3.97338 4.3347C5.02338 3.2847 6.33171 2.7597 7.89838 2.7597C8.76504 2.7597 9.59004 2.94304 10.3734 3.3097C11.1567 3.67637 11.8317 4.19304 12.3984 4.8597C12.965 4.19304 13.64 3.67637 14.4234 3.3097C15.2067 2.94304 16.0317 2.7597 16.8984 2.7597C18.465 2.7597 19.7734 3.2847 20.8234 4.3347C21.8734 5.3847 22.3984 6.69304 22.3984 8.2597C22.3984 9.02637 22.2692 9.77637 22.0109 10.5097C21.7525 11.243 21.2984 12.0472 20.6484 12.9222C19.9984 13.7972 19.1234 14.7847 18.0234 15.8847C16.9234 16.9847 15.5317 18.293 13.8484 19.8097L12.3984 21.1097ZM12.3984 18.4097C13.9984 16.9764 15.315 15.7472 16.3484 14.7222C17.3817 13.6972 18.1984 12.8055 18.7984 12.0472C19.3984 11.2889 19.815 10.6139 20.0484 10.0222C20.2817 9.43054 20.3984 8.84304 20.3984 8.2597C20.3984 7.2597 20.065 6.42637 19.3984 5.7597C18.7317 5.09304 17.8984 4.7597 16.8984 4.7597C16.115 4.7597 15.39 4.98054 14.7234 5.4222C14.0567 5.86387 13.5984 6.42637 13.3484 7.1097H11.4484C11.1984 6.42637 10.74 5.86387 10.0734 5.4222C9.40671 4.98054 8.68171 4.7597 7.89838 4.7597C6.89838 4.7597 6.06504 5.09304 5.39838 5.7597C4.73171 6.42637 4.39838 7.2597 4.39838 8.2597C4.39838 8.84304 4.51504 9.43054 4.74838 10.0222C4.98171 10.6139 5.39838 11.2889 5.99838 12.0472C6.59838 12.8055 7.41504 13.6972 8.44838 14.7222C9.48171 15.7472 10.7984 16.9764 12.3984 18.4097Z" fill="#202423"/>
</g>
</svg>
