<svg width="83" height="20" viewBox="0 0 83 20" fill="none" xmlns="http://www.w3.org/2000/svg">
<path d="M5.64 19.1C5.14667 19.1 4.79333 18.9933 4.58 18.78C4.36667 18.5533 4.26 18.1333 4.26 17.52C4.26 17.1067 4.3 16.58 4.38 15.94C4.47333 15.2867 4.62 14.3933 4.82 13.26C5.16667 11.1667 5.44 9.35333 5.64 7.82C5.76 6.86 5.82 6.06 5.82 5.42C5.82 4.82 5.6 4.52 5.16 4.52C4.81333 4.52 4.39333 4.7 3.9 5.06C3.42 5.40667 2.88667 5.96667 2.3 6.74C2.11333 6.99333 1.90667 7.12 1.68 7.12C1.49333 7.12 1.32667 7.03333 1.18 6.86C1.04667 6.67333 0.98 6.46667 0.98 6.24C0.98 6.02667 1.02 5.81333 1.1 5.6C1.19333 5.37333 1.34 5.12 1.54 4.84C2.18 3.94667 2.89333 3.26 3.68 2.78C4.46667 2.28667 5.25333 2.04 6.04 2.04C6.77333 2.04 7.33333 2.27333 7.72 2.74C8.12 3.20667 8.32 3.88667 8.32 4.78C8.32 5.14 8.28667 5.56667 8.22 6.06C8.15333 6.54 8.09333 6.93333 8.04 7.24C7.98667 7.54667 7.94667 7.76 7.92 7.88C8.68 5.70667 9.53333 4.19333 10.48 3.34C11.4267 2.47333 12.4667 2.04 13.6 2.04C14.4667 2.04 15.1467 2.34667 15.64 2.96C16.1467 3.57333 16.4 4.44 16.4 5.56C16.4 6 16.34 6.54667 16.22 7.2C16.8867 5.36 17.6667 4.04 18.56 3.24C19.4533 2.44 20.48 2.04 21.64 2.04C22.5733 2.04 23.2867 2.34 23.78 2.94C24.2867 3.54 24.54 4.38 24.54 5.46C24.54 6.04667 24.4533 6.76 24.28 7.6L23.06 13.32C22.9267 13.9867 22.86 14.56 22.86 15.04C22.86 15.6 22.9867 16.02 23.24 16.3C23.5067 16.58 23.8733 16.72 24.34 16.72C24.78 16.72 25.2067 16.5733 25.62 16.28C26.0467 15.9867 26.5467 15.5 27.12 14.82C27.28 14.6333 27.46 14.54 27.66 14.54C27.8333 14.54 27.9667 14.62 28.06 14.78C28.1667 14.94 28.22 15.16 28.22 15.44C28.22 15.96 28.0933 16.3733 27.84 16.68C27.1467 17.52 26.46 18.1333 25.78 18.52C25.1 18.9067 24.3867 19.1 23.64 19.1C22.5067 19.1 21.62 18.7667 20.98 18.1C20.34 17.42 20.02 16.5133 20.02 15.38C20.02 14.5933 20.18 13.4533 20.5 11.96L21.3 8.3C21.3267 8.18 21.3733 7.96667 21.44 7.66C21.5067 7.35333 21.56 7.06667 21.6 6.8C21.64 6.52 21.66 6.24667 21.66 5.98C21.66 5.51333 21.5667 5.16667 21.38 4.94C21.2067 4.7 20.9533 4.58 20.62 4.58C19.9933 4.58 19.3333 4.98667 18.64 5.8C17.96 6.6 17.3067 7.93333 16.68 9.8C16.0667 11.6667 15.5667 14.0933 15.18 17.08C15.0867 17.88 14.92 18.42 14.68 18.7C14.4533 18.9667 14.08 19.1 13.56 19.1C13.1067 19.1 12.7733 18.9933 12.56 18.78C12.36 18.5667 12.26 18.1667 12.26 17.58C12.26 17.0333 12.3333 16.32 12.48 15.44C12.6267 14.5467 12.8133 13.5 13.04 12.3C13.6533 9.07333 13.96 6.99333 13.96 6.06C13.96 5.55333 13.86 5.18 13.66 4.94C13.4733 4.7 13.1867 4.58 12.8 4.58C12.1467 4.58 11.4733 4.95333 10.78 5.7C10.0867 6.43333 9.40667 7.74667 8.74 9.64C8.08667 11.52 7.54 14.0667 7.1 17.28C7.00667 17.96 6.86667 18.4333 6.68 18.7C6.50667 18.9667 6.16 19.1 5.64 19.1ZM35.5284 14.54C35.7018 14.54 35.8351 14.62 35.9284 14.78C36.0351 14.94 36.0884 15.16 36.0884 15.44C36.0884 15.9733 35.9618 16.3867 35.7084 16.68C35.2151 17.28 34.5151 17.8333 33.6084 18.34C32.7151 18.8467 31.7551 19.1 30.7284 19.1C29.3284 19.1 28.2418 18.72 27.4684 17.96C26.6951 17.2 26.3084 16.16 26.3084 14.84C26.3084 13.92 26.5018 13.0667 26.8884 12.28C27.2751 11.48 27.8084 10.8467 28.4884 10.38C29.1818 9.91333 29.9618 9.68 30.8284 9.68C31.6018 9.68 32.2218 9.91333 32.6884 10.38C33.1551 10.8333 33.3884 11.4533 33.3884 12.24C33.3884 13.16 33.0551 13.9533 32.3884 14.62C31.7351 15.2733 30.6218 15.7933 29.0484 16.18C29.3818 16.7933 30.0151 17.1 30.9484 17.1C31.5484 17.1 32.2284 16.8933 32.9884 16.48C33.7618 16.0533 34.4284 15.5 34.9884 14.82C35.1484 14.6333 35.3284 14.54 35.5284 14.54ZM30.4884 11.64C29.9951 11.64 29.5751 11.9267 29.2284 12.5C28.8951 13.0733 28.7284 13.7667 28.7284 14.58V14.62C29.5151 14.4333 30.1351 14.1533 30.5884 13.78C31.0418 13.4067 31.2684 12.9733 31.2684 12.48C31.2684 12.2267 31.1951 12.0267 31.0484 11.88C30.9151 11.72 30.7284 11.64 30.4884 11.64ZM45.7223 14.54C45.8957 14.54 46.029 14.62 46.1223 14.78C46.229 14.94 46.2823 15.16 46.2823 15.44C46.2823 15.9733 46.1557 16.3867 45.9023 16.68C45.3557 17.3467 44.7557 17.92 44.1023 18.4C43.449 18.8667 42.8023 19.1 42.1623 19.1C41.149 19.1 40.3757 18.5067 39.8423 17.32C39.2823 18.0267 38.789 18.5 38.3623 18.74C37.949 18.98 37.4623 19.1 36.9023 19.1C36.089 19.1 35.4157 18.8 34.8823 18.2C34.3623 17.5867 34.1023 16.7933 34.1023 15.82C34.1023 14.7533 34.329 13.7667 34.7823 12.86C35.2357 11.94 35.8557 11.1933 36.6423 10.62C37.4423 10.0333 38.3357 9.68667 39.3223 9.58C39.5757 6.99333 40.0557 4.78667 40.7623 2.96C41.4823 1.12 42.4223 0.199999 43.5823 0.199999C44.1557 0.199999 44.629 0.459999 45.0023 0.98C45.389 1.5 45.5823 2.28667 45.5823 3.34C45.5823 4.83333 45.2157 6.58 44.4823 8.58C43.749 10.58 42.769 12.6333 41.5423 14.74C41.5957 15.5133 41.709 16.0667 41.8823 16.4C42.069 16.7333 42.3023 16.9 42.5823 16.9C42.9423 16.9 43.309 16.74 43.6823 16.42C44.0557 16.1 44.5557 15.5667 45.1823 14.82C45.3423 14.6333 45.5223 14.54 45.7223 14.54ZM43.3623 2.16C43.109 2.16 42.8557 2.61333 42.6023 3.52C42.349 4.41333 42.129 5.58667 41.9423 7.04C41.769 8.49333 41.6423 10.0133 41.5623 11.6C43.0557 8.34667 43.8023 5.73333 43.8023 3.76C43.8023 3.25333 43.7557 2.86 43.6623 2.58C43.5823 2.3 43.4823 2.16 43.3623 2.16ZM37.6023 17.08C37.8557 17.08 38.109 16.98 38.3623 16.78C38.6157 16.5667 38.9357 16.18 39.3223 15.62C39.189 14.9 39.1223 14.0933 39.1223 13.2C39.1223 12.88 39.1357 12.36 39.1623 11.64C38.429 11.8667 37.8157 12.36 37.3223 13.12C36.8423 13.8667 36.6023 14.7 36.6023 15.62C36.6023 16.5933 36.9357 17.08 37.6023 17.08ZM47.2753 8.36C46.7153 8.36 46.2953 8.23333 46.0153 7.98C45.7353 7.71333 45.5953 7.34667 45.5953 6.88C45.5953 6.41333 45.7753 6.02667 46.1353 5.72C46.5086 5.4 46.9686 5.24 47.5153 5.24C48.0086 5.24 48.4086 5.36 48.7153 5.6C49.022 5.84 49.1753 6.18 49.1753 6.62C49.1753 7.15333 49.002 7.58 48.6553 7.9C48.3086 8.20667 47.8486 8.36 47.2753 8.36ZM47.1153 19.1C46.2486 19.1 45.6153 18.7933 45.2153 18.18C44.8286 17.5667 44.6353 16.7533 44.6353 15.74C44.6353 15.14 44.7086 14.3733 44.8553 13.44C45.0153 12.4933 45.2153 11.6133 45.4553 10.8C45.5753 10.3733 45.7353 10.08 45.9353 9.92C46.1353 9.76 46.4553 9.68 46.8953 9.68C47.5753 9.68 47.9153 9.90667 47.9153 10.36C47.9153 10.6933 47.7886 11.4667 47.5353 12.68C47.2153 14.1467 47.0553 15.14 47.0553 15.66C47.0553 16.06 47.1086 16.3667 47.2153 16.58C47.322 16.7933 47.502 16.9 47.7553 16.9C47.9953 16.9 48.2953 16.7333 48.6553 16.4C49.0153 16.0667 49.4953 15.54 50.0953 14.82C50.2553 14.6333 50.4353 14.54 50.6353 14.54C50.8086 14.54 50.942 14.62 51.0353 14.78C51.142 14.94 51.1953 15.16 51.1953 15.44C51.1953 15.9733 51.0686 16.3867 50.8153 16.68C49.4953 18.2933 48.262 19.1 47.1153 19.1ZM53.3972 19.1C52.0905 19.1 51.0705 18.7333 50.3372 18C49.6172 17.2533 49.2572 16.2733 49.2572 15.06C49.2572 13.98 49.4705 13.0333 49.8972 12.22C50.3239 11.4067 50.8772 10.78 51.5572 10.34C52.2372 9.9 52.9505 9.68 53.6972 9.68C54.4305 9.68 54.9972 9.9 55.3972 10.34C55.8105 10.7667 56.0172 11.32 56.0172 12C56.0172 12.56 55.8905 13.0333 55.6372 13.42C55.3972 13.8067 55.0772 14 54.6772 14C54.4239 14 54.2172 13.94 54.0572 13.82C53.9105 13.7 53.8372 13.5333 53.8372 13.32C53.8372 13.2267 53.8505 13.12 53.8772 13C53.9039 12.88 53.9239 12.7933 53.9372 12.74C54.0039 12.54 54.0372 12.3533 54.0372 12.18C54.0372 12.0067 53.9905 11.8733 53.8972 11.78C53.8172 11.6867 53.6972 11.64 53.5372 11.64C53.2305 11.64 52.9439 11.78 52.6772 12.06C52.4105 12.3267 52.1972 12.6933 52.0372 13.16C51.8772 13.6267 51.7972 14.14 51.7972 14.7C51.7972 16.2467 52.4705 17.02 53.8172 17.02C54.3639 17.02 54.9505 16.84 55.5772 16.48C56.2172 16.1067 56.8439 15.5533 57.4572 14.82C57.6172 14.6333 57.7972 14.54 57.9972 14.54C58.1705 14.54 58.3039 14.62 58.3972 14.78C58.5039 14.94 58.5572 15.16 58.5572 15.44C58.5572 15.9467 58.4305 16.36 58.1772 16.68C57.5505 17.4533 56.7972 18.0533 55.9172 18.48C55.0505 18.8933 54.2105 19.1 53.3972 19.1ZM58.9805 19.1C58.3805 19.1 57.8871 18.8267 57.5005 18.28C57.1271 17.72 56.9405 17.0267 56.9405 16.2C56.9405 15.2 57.0071 14.2867 57.1405 13.46C57.2738 12.62 57.4938 11.7333 57.8005 10.8C57.9338 10.4 58.1205 10.1133 58.3605 9.94C58.6005 9.76667 58.9805 9.68 59.5005 9.68C59.7938 9.68 59.9938 9.72667 60.1005 9.82C60.2205 9.91333 60.2805 10.0533 60.2805 10.24C60.2805 10.3467 60.2071 10.7067 60.0605 11.32C59.9271 11.8133 59.8205 12.26 59.7405 12.66C59.4738 14.06 59.3405 14.9933 59.3405 15.46C59.3405 15.74 59.3738 15.94 59.4405 16.06C59.5071 16.1667 59.6138 16.22 59.7605 16.22C59.9605 16.22 60.2071 16.02 60.5005 15.62C60.8071 15.22 61.1271 14.6133 61.4605 13.8C61.8071 12.9867 62.1405 11.9867 62.4605 10.8C62.5671 10.4 62.7271 10.1133 62.9405 9.94C63.1671 9.76667 63.5005 9.68 63.9405 9.68C64.2471 9.68 64.4605 9.72 64.5805 9.8C64.7005 9.86667 64.7605 10 64.7605 10.2C64.7605 10.5333 64.5938 11.4467 64.2605 12.94C63.8871 14.6467 63.7005 15.7 63.7005 16.1C63.7005 16.3533 63.7538 16.5533 63.8605 16.7C63.9671 16.8333 64.1071 16.9 64.2805 16.9C64.5471 16.9 64.8605 16.74 65.2205 16.42C65.5938 16.0867 66.0871 15.5533 66.7005 14.82C66.8605 14.6333 67.0405 14.54 67.2405 14.54C67.4138 14.54 67.5471 14.62 67.6405 14.78C67.7471 14.94 67.8005 15.16 67.8005 15.44C67.8005 15.9733 67.6738 16.3867 67.4205 16.68C66.8471 17.3867 66.2271 17.9667 65.5605 18.42C64.9071 18.8733 64.1605 19.1 63.3205 19.1C62.6805 19.1 62.2071 18.8533 61.9005 18.36C61.6071 17.8667 61.4605 17.1733 61.4605 16.28C61.2338 17.1867 60.8938 17.8867 60.4405 18.38C59.9871 18.86 59.5005 19.1 58.9805 19.1ZM67.5988 19.1C67.0921 19.1 66.7321 18.8333 66.5188 18.3C66.3188 17.7667 66.2188 16.9133 66.2188 15.74C66.2188 14.0067 66.4654 12.36 66.9588 10.8C67.0788 10.4133 67.2721 10.1333 67.5388 9.96C67.8188 9.77333 68.2054 9.68 68.6988 9.68C68.9654 9.68 69.1521 9.71333 69.2588 9.78C69.3654 9.84667 69.4188 9.97333 69.4188 10.16C69.4188 10.3733 69.3188 10.8533 69.1188 11.6C68.9854 12.1333 68.8788 12.6 68.7988 13C68.7188 13.4 68.6521 13.8933 68.5988 14.48C69.0388 13.3333 69.5321 12.4 70.0788 11.68C70.6254 10.96 71.1588 10.4467 71.6788 10.14C72.2121 9.83333 72.6988 9.68 73.1388 9.68C74.0054 9.68 74.4388 10.1133 74.4388 10.98C74.4388 11.1533 74.3788 11.5733 74.2588 12.24C74.1521 12.7733 74.0988 13.1067 74.0988 13.24C74.0988 13.7067 74.2654 13.94 74.5988 13.94C74.9721 13.94 75.4521 13.6467 76.0388 13.06C76.2121 12.8867 76.3921 12.8 76.5788 12.8C76.7521 12.8 76.8854 12.88 76.9787 13.04C77.0854 13.1867 77.1388 13.3867 77.1388 13.64C77.1388 14.1333 77.0054 14.52 76.7388 14.8C76.3654 15.1867 75.9254 15.52 75.4188 15.8C74.9254 16.0667 74.3988 16.2 73.8388 16.2C73.1321 16.2 72.5921 16.02 72.2188 15.66C71.8588 15.3 71.6788 14.8133 71.6788 14.2C71.6788 14 71.6988 13.8 71.7388 13.6C71.7654 13.3333 71.7788 13.1533 71.7788 13.06C71.7788 12.8467 71.7054 12.74 71.5588 12.74C71.3588 12.74 71.0921 12.9667 70.7588 13.42C70.4388 13.86 70.1188 14.4467 69.7988 15.18C69.4788 15.9133 69.2188 16.6867 69.0188 17.5C68.8721 18.1267 68.6988 18.5533 68.4988 18.78C68.3121 18.9933 68.0121 19.1 67.5988 19.1ZM82.4403 15.14C82.6136 15.14 82.747 15.22 82.8403 15.38C82.947 15.54 83.0003 15.76 83.0003 16.04C83.0003 16.52 82.887 16.9333 82.6603 17.28C82.287 17.8533 81.7936 18.3 81.1803 18.62C80.5803 18.94 79.8603 19.1 79.0203 19.1C77.7403 19.1 76.747 18.72 76.0403 17.96C75.3336 17.1867 74.9803 16.1467 74.9803 14.84C74.9803 13.92 75.1736 13.0667 75.5603 12.28C75.947 11.48 76.4803 10.8467 77.1603 10.38C77.8536 9.91333 78.6336 9.68 79.5003 9.68C80.2736 9.68 80.8936 9.91333 81.3603 10.38C81.827 10.8333 82.0603 11.4533 82.0603 12.24C82.0603 13.16 81.727 13.9533 81.0603 14.62C80.407 15.2733 79.287 15.7933 77.7003 16.18C78.0203 16.7933 78.5603 17.1 79.3203 17.1C79.867 17.1 80.3136 16.9733 80.6603 16.72C81.0203 16.4667 81.4336 16.04 81.9003 15.44C82.0603 15.24 82.2403 15.14 82.4403 15.14ZM79.1603 11.64C78.667 11.64 78.247 11.9267 77.9003 12.5C77.567 13.0733 77.4003 13.7667 77.4003 14.58V14.62C78.187 14.4333 78.807 14.1533 79.2603 13.78C79.7136 13.4067 79.9403 12.9733 79.9403 12.48C79.9403 12.2267 79.867 12.0267 79.7203 11.88C79.587 11.72 79.4003 11.64 79.1603 11.64Z" fill="#208771"/>
</svg>
